IKResults
version=1
nRows=10
nColumns=63
inDegrees=yes

Units are S.I. units (second, meters, Newtons, ...)
If the header above contains a line with 'inDegrees', this indicates whether rotational values are in degrees (yes) or radians (no).

endheader
time	pelvis_tilt	pelvis_list	pelvis_rotation	pelvis_tx	pelvis_ty	pelvis_tz	hip_flexion_r	hip_adduction_r	hip_rotation_r	knee_angle_r	knee_angle_r_beta	ankle_angle_r	subtalar_angle_r	mtp_angle_r	hip_flexion_l	hip_adduction_l	hip_rotation_l	knee_angle_l	knee_angle_l_beta	ankle_angle_l	subtalar_angle_l	mtp_angle_l	L5_S1_Flex_Ext	L5_S1_Lat_Bending	L5_S1_axial_rotation	L4_L5_Flex_Ext	L4_L5_Lat_Bending	L4_L5_axial_rotation	L3_L4_Flex_Ext	L3_L4_Lat_Bending	L3_L4_axial_rotation	L2_L3_Flex_Ext	L2_L3_Lat_Bending	L2_L3_axial_rotation	L1_L2_Flex_Ext	L1_L2_Lat_Bending	L1_L2_axial_rotation	L1_T12_Flex_Ext	L1_T12_Lat_Bending	L1_T12_axial_rotation	Abs_r3	Abs_r2	Abs_r1	Abs_t1	Abs_t2	neck_flexion	neck_bending	neck_rotation	arm_flex_r	arm_add_r	arm_rot_r	elbow_flex_r	pro_sup_r	wrist_flex_r	wrist_dev_r	arm_flex_l	arm_add_l	arm_rot_l	elbow_flex_l	pro_sup_l	wrist_flex_l	wrist_dev_l
      4.03333333	    -21.47522941	     -7.05643165	     -0.97845029	     -0.51228766	      0.92898380	     -0.31504812	     35.55662874	      4.94656109	     -2.68103441	     29.90939894	      0.52201749	     15.85927762	    -12.46974425	      0.00000000	     15.15594912	     -6.11806802	    -15.29570953	     13.21279785	      0.23060683	     19.90661790	      7.18634750	      0.00000000	      3.91409604	      0.86502897	     -0.93303598	      7.26886775	      1.15048853	     -0.99135073	      6.43046838	      2.10323144	     -0.99135073	      4.47342036	      2.10323144	     -0.81640648	      3.63462958	      1.76396708	     -0.75809174	      2.23651448	      1.33992988	     -0.69977699	     27.95799658	      9.78538075	     -5.18926622	      0.00000000	      0.00000000	      6.30193294	     -3.97636310	     -2.24666693	    -19.95975750	    -16.36664623	      8.96486258	     34.25123301	     89.99559364	      0.00000000	      0.00000000	     -6.72532319	     -9.81004356	     -0.04377664	     37.81394883	     89.99559364	      0.00000000	      0.00000000
      4.06666667	    -20.73441209	     -7.19634921	     -1.24824026	     -0.49290623	      0.92897284	     -0.31254591	     35.47427671	      5.60904416	     -1.96554187	     26.65801678	      0.46527016	     13.73652558	    -12.77159588	      0.00000000	     13.24650406	     -6.56342505	    -15.86128781	     13.62194682	      0.23774782	     20.36246123	      7.24658142	      0.00000000	      3.75178118	      0.91709921	     -1.03877516	      6.96743283	      1.21974195	     -1.10369861	      6.16380130	      2.22983502	     -1.10369861	      4.28791071	      2.22983502	     -0.90892827	      3.48390400	      1.87014871	     -0.84400482	      2.14376777	      1.42058668	     -0.77908137	     26.79859779	     10.37440970	     -5.77735583	      0.00000000	      0.00000000	      6.77161922	     -4.26907706	     -1.67091310	    -20.56980173	    -16.65336276	      9.70697847	     33.09454020	     89.99559364	      0.00000000	      0.00000000	     -4.93877681	     -9.89737990	     -0.33889661	     38.91003185	     89.99559364	      0.00000000	      0.00000000
      4.10000000	    -20.30677591	     -7.09909005	     -1.50751300	     -0.47274850	      0.92855849	     -0.30927489	     35.34132350	      5.98427044	     -1.59913107	     23.35445734	      0.40761218	     11.60201107	    -12.24123733	      0.00000000	     11.60963801	     -6.75341785	    -16.25339736	     13.93294780	      0.24317581	     20.49756241	      7.04359893	      0.00000000	      3.66154395	      0.93463432	     -1.14150197	      6.79985328	      1.24306365	     -1.21284584	      6.01555056	      2.27246988	     -1.21284584	      4.18477858	      2.27246988	     -0.99881422	      3.40010972	      1.90590630	     -0.92747035	      2.09220622	      1.44774856	     -0.85612648	     26.15404231	     10.57277035	     -6.34869151	      0.00000000	      0.00000000	      6.99881073	     -4.27874286	     -1.35020560	    -21.20464237	    -16.70181132	     10.10417634	     31.91277655	     89.99559364	      0.00000000	      0.00000000	     -3.66935662	    -10.20713977	     -0.46444514	     40.19312456	     89.99559364	      0.00000000	      0.00000000
      4.13333333	    -18.92796876	     -7.17045670	     -1.40856512	     -0.45246097	      0.92917990	     -0.30595850	     33.88043470	      6.58916212	     -0.46858802	     20.00962540	      0.34923385	      8.89192577	    -13.40766027	      0.00000000	      9.16140170	     -7.15924702	    -16.82330239	     14.47679232	      0.25266769	     20.77252983	      7.35531148	      0.00000000	      3.39766293	      0.95573651	     -1.27945245	      6.30979983	      1.27112956	     -1.35941823	      5.58202043	      2.32377775	     -1.35941823	      3.88318896	      2.32377775	     -1.11952089	      3.15506980	      1.94893789	     -1.03955511	      1.94142460	      1.48043585	     -0.95958934	     24.26916655	     10.81148253	     -7.11593068	      0.00000000	      0.00000000	      7.75557418	     -4.38567958	     -0.82909770	    -21.23441577	    -16.93141070	     11.51175241	     30.90616517	     89.99559364	      0.00000000	      0.00000000	     -2.02767079	    -10.31641752	     -0.92431110	     40.80072331	     89.99559364	      0.00000000	      0.00000000
      4.16666667	    -17.87685013	     -7.01909780	     -1.36860023	     -0.43153336	      0.92955613	     -0.30197225	     32.49254047	      6.95205147	      0.49153752	     16.94341721	      0.29571842	      6.46085871	    -13.94697958	      0.00000000	      7.09448295	     -7.33655357	    -17.06670269	     15.02696404	      0.26227000	     20.70026902	      7.11653933	      0.00000000	      3.20714046	      0.94631497	     -1.39485033	      5.95598055	      1.25859891	     -1.48202848	      5.26901106	      2.30087022	     -1.48202848	      3.66544083	      2.30087022	     -1.22049404	      2.97815063	      1.92972549	     -1.13331589	      1.83256006	      1.46584189	     -1.04613775	     22.90828360	     10.70490421	     -7.75773909	      0.00000000	      0.00000000	      8.25643189	     -4.19665059	     -0.63932886	    -21.20943228	    -16.99257547	     12.82042903	     29.82512188	     89.99559364	      0.00000000	      0.00000000	     -0.87890961	    -10.63390934	     -1.08084220	     41.56952855	     89.99559364	      0.00000000	      0.00000000
      4.20000000	    -17.60347757	     -6.71332701	     -1.41665978	     -0.40957471	      0.92923614	     -0.29742174	     31.66695647	      7.09737757	      0.88692328	     14.25447272	      0.24878748	      4.65332167	    -13.30480472	      0.00000000	      5.90710933	     -7.39681943	    -17.27149244	     15.65904419	      0.27330188	     20.28315532	      6.65697740	      0.00000000	      3.18051366	      0.92066763	     -1.47250404	      5.90653192	      1.22448795	     -1.56453555	      5.22526589	      2.23851128	     -1.56453555	      3.63500906	      2.23851128	     -1.28844104	      2.95342498	      1.87742544	     -1.19640953	      1.81734550	      1.42611416	     -1.10437803	     22.71809101	     10.41477639	     -8.18962573	      0.00000000	      0.00000000	      8.37987101	     -3.94085324	     -0.62114445	    -21.69382321	    -16.82629890	     13.06881946	     29.02769592	     89.99559364	      0.00000000	      0.00000000	     -0.32676215	    -10.96230181	     -1.06203919	     42.32867410	     89.99559364	      0.00000000	      0.00000000
      4.23333333	    -15.94907185	     -6.63859003	     -1.08973917	     -0.38828105	      0.93069585	     -0.29310669	     29.21773183	      7.49014082	      2.21378260	     11.79762639	      0.20590742	      2.50280693	    -14.80921086	      0.00000000	      3.61551616	     -7.60513139	    -16.39792846	     16.53114944	      0.28852299	     19.87033078	      5.03766278	      0.00000000	      2.89126132	      0.90276910	     -1.59297068	      5.36936140	      1.20068290	     -1.69253135	      4.75005323	      2.19499279	     -1.69253135	      3.30442257	      2.19499279	     -1.39384935	      2.68482526	      1.84092675	     -1.29428868	      1.65206672	      1.39838934	     -1.19472801	     20.65199051	     10.21230461	     -8.85962506	      0.00000000	      0.00000000	      9.06325470	     -3.71708809	     -0.52729360	    -21.03561647	    -16.84621910	     14.87109220	     28.00717715	     89.99559364	      0.00000000	      0.00000000	      0.81384199	    -11.20388128	     -1.08258990	     42.42139029	     89.99559364	      0.00000000	      0.00000000
      4.26666667	    -15.58970464	     -6.39767269	     -0.99502631	     -0.36580217	      0.93099241	     -0.28810854	     27.90289835	      7.68362450	      2.64200169	      9.75585920	      0.17027186	      1.26988966	    -14.59042405	      0.00000000	      2.75204750	     -7.80216576	    -16.27267823	     17.50176883	      0.30546349	     19.24052460	      4.20369735	      0.00000000	      2.86446510	      0.87417832	     -1.65924431	      5.31959814	      1.16265716	     -1.76294708	      4.70602971	      2.12547716	     -1.76294708	      3.27379716	      2.12547716	     -1.45183877	      2.65994229	      1.78262442	     -1.34813600	      1.63675536	      1.35410221	     -1.24443324	     20.46058777	      9.88887994	     -9.22821910	      0.00000000	      0.00000000	      9.05576472	     -3.40109971	     -0.61851670	    -21.17935340	    -16.62632086	     15.12288982	     27.32977304	     89.99559364	      0.00000000	      0.00000000	      1.04571737	    -11.43065458	     -0.97082519	     42.68203720	     89.99559364	      0.00000000	      0.00000000
      4.30000000	    -14.35102055	     -6.14692991	     -0.67898842	     -0.34423968	      0.93248405	     -0.28340266	     25.59753035	      7.85689205	      3.75573347	      8.07897566	      0.14100473	      0.22921947	    -15.58678103	      0.00000000	      1.42361662	     -7.85556921	    -14.86294783	     18.81548858	      0.32839223	     18.49211496	      1.69656527	      0.00000000	      2.66610931	      0.83392849	     -1.73320453	      4.95123161	      1.10912490	     -1.84152982	      4.38015099	      2.02761374	     -1.84152982	      3.04709633	      2.02761374	     -1.51655397	      2.47574911	      1.70054698	     -1.40822868	      1.52341486	      1.29175524	     -1.29990340	     19.04375221	      9.43356589	     -9.63956365	      0.00000000	      0.00000000	      9.50123332	     -3.13271886	     -0.69334392	    -20.53147217	    -16.38324623	     15.88030657	     26.55352045	     89.99559364	      0.00000000	      0.00000000	      1.65745437	    -11.68038263	     -0.68134922	     42.45352595	     89.99559364	      0.00000000	      0.00000000
      4.33333333	    -13.70958425	     -5.77965454	     -0.63726849	     -0.32229492	      0.93359643	     -0.27820442	     23.77122314	      7.97680749	      4.61666026	      6.73405999	      0.11753152	     -0.23776653	    -15.93215186	      0.00000000	      0.85975064	     -7.88009819	    -14.12703685	     20.19734737	      0.35251021	     17.68057780	     -0.32052533	      0.00000000	      2.58944610	      0.78669441	     -1.74826681	      4.80886035	      1.04630357	     -1.85753348	      4.25420099	      1.91276879	     -1.85753348	      2.95947795	      1.91276879	     -1.52973346	      2.40455965	      1.60422725	     -1.42046678	      1.47960950	      1.21858964	     -1.31120011	     18.49615453	      8.89924453	     -9.72333551	      0.00000000	      0.00000000	      9.53608700	     -2.79257476	     -0.83372901	    -20.05864071	    -16.11584227	     16.53454774	     25.89975439	     89.99559364	      0.00000000	      0.00000000	      1.71672516	    -11.90629525	     -0.36780773	     42.21364568	     89.99559364	      0.00000000	      0.00000000
